# xmcd
#
# Track frame offsets: 
#        300
#        19702
#        42929
#        55933
#        70124
#        101719
#        113494
#        123576
#        145209
#        163852
#
# Disc length: 2345 seconds
#
# Revision: 1
# Processed by: cddbd v1.5.2PL0 Copyright (c) Steve Scherf et al.
# Submitted via: ExactAudioCopy v1.0b1
#
DISCID=8909250a
DTITLE=Aynsley Lister - Messin' With The Kid
DYEAR=2000
DGENRE=British Blues Rock
TTITLE0=Messin' With The Kid
TTITLE1=Voodoo Chile (Slight Return)
TTITLE2=I'm Tore Down
TTITLE3=Walkin' Blues
TTITLE4=Tin Pan Alley
TTITLE5=Stop messin' Round
TTITLE6=Scuttle Buttin'
TTITLE7=The Sky is Cryin'
TTITLE8=Continental Op
TTITLE9=Come Go home With Me
EXTD=YEAR: 1996 ID3G: 0
EXTT0=
EXTT1=
EXTT2=
EXTT3=
EXTT4=
EXTT5=
EXTT6=
EXTT7=
EXTT8=
EXTT9=
PLAYORDER=
